<svg viewBox="0 0 891 891" xmlns="http://www.w3.org/2000/svg">
  <g fill="none" fill-rule="evenodd">
    <circle fill="#BE2323" cx="445.5" cy="445.5" r="445.5"/>
    <path d="M624.79264347 526.99103238l128.64660032-34.47075266c-18.31769133 118.47279187-104.45558413 220.8286317-227.68770172 253.84857808-166.44142429 44.59784523-337.52255465-54.17589144-382.12039987-220.61731573-44.59784523-166.44142429 54.17589144-337.52255465 220.61731573-382.12039987 166.44142429-44.59784523 337.52255465 54.17589144 382.12039987 220.61731573 5.05684585 18.87240561 8.27039685 37.8044626 9.75101427 56.60502112l-204.2023742 54.71586126-274.86085683 73.64874462c44.71948987 72.12393585 132.88523509 109.7462843 219.08600227 86.64885834 59.27717373-15.88327082 105.00241774-57.09757518 128.65000016-108.87591089zm-377.3449012-88.27486198l365.4956167-97.93425533c-44.71948988-72.12393585-132.8852351-109.7462843-219.08600228-86.64885834-86.20076719 23.09742595-143.74336807 99.76220806-146.40961441 184.58311367z" fill="#FFF"/>
    <path d="M366 747.110747c34.079518 9.128386 52.199295 18.122489 54.359331 26.982308 5.937374 24.353331 2.695897 21.58103-5.880778 57.012278-8.576675 35.431248 19.614305 38.924946 25.721371 36.147186 8.909876-4.052601 23.102092-14.29406 4.009228-49.520112-8.312711-15.336828-6.996604-31.092758-3.323354-45.881309 3.745264-15.078478 26.526081-10.535855 66.138501-20.740351 26.40828-6.802998-3.672209-25.839914-90.241468-57.110747L366 747.110747z" fill="#FFF"/>
  </g>
</svg>
