<?xml version="1.0" standalone="no"?>
<!DOCTYPE svg PUBLIC "-//W3C//DTD SVG 20010904//EN"
 "http://www.w3.org/TR/2001/REC-SVG-20010904/DTD/svg10.dtd">
<svg version="1.0" xmlns="http://www.w3.org/2000/svg"
 width="700.000000pt" height="700.000000pt" viewBox="0 0 700.000000 700.000000"
 preserveAspectRatio="xMidYMid meet">
<metadata>
Created by potrace 1.11, written by Peter Selinger 2001-2013
</metadata>
<g transform="translate(0.000000,700.000000) scale(0.100000,-0.100000)"
fill="#000000" stroke="none">
<path d="M3285 6994 c-203 -20 -276 -28 -375 -45 -610 -105 -1195 -376 -1665
-772 -95 -81 -310 -294 -394 -392 -468 -542 -742 -1176 -833 -1925 -17 -137
-17 -583 0 -720 69 -569 227 -1028 514 -1491 145 -236 311 -440 525 -649 204
-200 371 -332 592 -468 463 -287 922 -445 1491 -514 137 -17 583 -17 720 0
569 69 1028 227 1491 514 360 222 692 528 958 882 323 430 549 960 640 1501
38 223 46 327 46 585 0 258 -8 362 -46 585 -105 627 -382 1216 -800 1700 -84
98 -299 311 -394 392 -518 437 -1148 710 -1845 798 -117 15 -536 28 -625 19z
m480 -1055 c457 -46 950 -257 1310 -562 314 -265 558 -608 710 -997 67 -171
127 -425 150 -626 l7 -60 -1879 -503 c-1033 -277 -1880 -505 -1881 -506 -2 -2
11 -25 29 -52 61 -89 149 -192 227 -263 365 -334 843 -476 1320 -394 477 81
876 374 1116 816 20 37 44 69 54 72 49 16 986 265 988 263 4 -4 -27 -157 -52
-252 -163 -626 -591 -1179 -1160 -1503 -269 -153 -570 -253 -973 -322 -181
-32 -240 -53 -259 -95 -18 -40 -34 -177 -27 -234 4 -33 27 -103 57 -171 83
-188 78 -290 -19 -346 -61 -37 -118 -28 -179 28 -34 31 -45 50 -54 91 -12 59
-9 82 44 296 34 137 35 147 24 215 -6 39 -17 83 -25 99 -30 60 -149 118 -398
192 -329 98 -502 176 -740 330 -646 419 -1054 1120 -1103 1895 -28 437 59 863
257 1255 128 253 263 439 465 640 432 429 998 676 1626 708 79 4 249 -2 365
-14z"/>
<path d="M3360 5049 c-324 -28 -644 -166 -894 -385 -286 -250 -481 -635 -514
-1017 -6 -65 -5 -87 4 -87 16 0 2845 758 2851 764 7 6 -48 85 -118 171 -206
255 -532 452 -863 524 -86 19 -298 43 -351 39 -11 0 -63 -4 -115 -9z"/>
</g>
</svg>
